<mxfile host="app.diagrams.net" modified="2024-04-23T19:56:12.595Z" agent="Mozilla/5.0 (Windows NT 10.0; Win64; x64) AppleWebKit/537.36 (KHTML, like Gecko) Chrome/124.0.0.0 Safari/537.36" etag="fGUfMwW5SVynnf6gm-Aq" version="24.2.8" type="google">
  <diagram id="C5RBs43oDa-KdzZeNtuy" name="Page-1">
    <mxGraphModel grid="1" page="1" gridSize="10" guides="1" tooltips="1" connect="1" arrows="1" fold="1" pageScale="1" pageWidth="827" pageHeight="1169" background="#FFFFFF" math="0" shadow="0">
      <root>
        <mxCell id="WIyWlLk6GJQsqaUBKTNV-0" />
        <mxCell id="WIyWlLk6GJQsqaUBKTNV-1" parent="WIyWlLk6GJQsqaUBKTNV-0" />
        <mxCell id="zkfFHV4jXpPFQw0GAbJ--0" value="Persona" style="swimlane;fontStyle=3;align=center;verticalAlign=top;childLayout=stackLayout;horizontal=1;startSize=26;horizontalStack=0;resizeParent=1;resizeLast=0;collapsible=1;marginBottom=0;rounded=1;shadow=0;strokeWidth=1;labelBackgroundColor=none;fillColor=#21C0A5;strokeColor=#006658;fontColor=#000000;fontSize=17;" vertex="1" parent="WIyWlLk6GJQsqaUBKTNV-1">
          <mxGeometry x="-283" y="313" width="510" height="596" as="geometry">
            <mxRectangle x="220" y="120" width="160" height="26" as="alternateBounds" />
          </mxGeometry>
        </mxCell>
        <mxCell id="zkfFHV4jXpPFQw0GAbJ--1" value="+nombre:String" style="text;align=left;verticalAlign=top;spacingLeft=4;spacingRight=4;overflow=hidden;rotatable=0;points=[[0,0.5],[1,0.5]];portConstraint=eastwest;labelBackgroundColor=none;fontColor=#000000;rounded=1;fontSize=17;" vertex="1" parent="zkfFHV4jXpPFQw0GAbJ--0">
          <mxGeometry y="26" width="510" height="26" as="geometry" />
        </mxCell>
        <mxCell id="zkfFHV4jXpPFQw0GAbJ--2" value="+apellidos:String" style="text;align=left;verticalAlign=top;spacingLeft=4;spacingRight=4;overflow=hidden;rotatable=0;points=[[0,0.5],[1,0.5]];portConstraint=eastwest;rounded=1;shadow=0;html=0;labelBackgroundColor=none;fontColor=#000000;fontSize=17;" vertex="1" parent="zkfFHV4jXpPFQw0GAbJ--0">
          <mxGeometry y="52" width="510" height="26" as="geometry" />
        </mxCell>
        <mxCell id="zkfFHV4jXpPFQw0GAbJ--3" value="+id:Int" style="text;align=left;verticalAlign=top;spacingLeft=4;spacingRight=4;overflow=hidden;rotatable=0;points=[[0,0.5],[1,0.5]];portConstraint=eastwest;rounded=1;shadow=0;html=0;labelBackgroundColor=none;fontColor=#000000;fontSize=17;" vertex="1" parent="zkfFHV4jXpPFQw0GAbJ--0">
          <mxGeometry y="78" width="510" height="22" as="geometry" />
        </mxCell>
        <mxCell id="ZBIgJgPECK3UeOJvwfk8-1" value="+status: String" style="text;align=left;verticalAlign=top;spacingLeft=4;spacingRight=4;overflow=hidden;rotatable=0;points=[[0,0.5],[1,0.5]];portConstraint=eastwest;rounded=1;shadow=0;html=0;labelBackgroundColor=none;fontColor=#000000;fontSize=17;" vertex="1" parent="zkfFHV4jXpPFQw0GAbJ--0">
          <mxGeometry y="100" width="510" height="30" as="geometry" />
        </mxCell>
        <mxCell id="ZBIgJgPECK3UeOJvwfk8-3" value="+correo: String" style="text;align=left;verticalAlign=top;spacingLeft=4;spacingRight=4;overflow=hidden;rotatable=0;points=[[0,0.5],[1,0.5]];portConstraint=eastwest;rounded=1;shadow=0;html=0;labelBackgroundColor=none;fontColor=#000000;fontSize=17;" vertex="1" parent="zkfFHV4jXpPFQw0GAbJ--0">
          <mxGeometry y="130" width="510" height="30" as="geometry" />
        </mxCell>
        <mxCell id="ZBIgJgPECK3UeOJvwfk8-2" value="+telefono: Int" style="text;align=left;verticalAlign=top;spacingLeft=4;spacingRight=4;overflow=hidden;rotatable=0;points=[[0,0.5],[1,0.5]];portConstraint=eastwest;rounded=1;shadow=0;html=0;labelBackgroundColor=none;fontColor=#000000;fontSize=17;" vertex="1" parent="zkfFHV4jXpPFQw0GAbJ--0">
          <mxGeometry y="160" width="510" height="30" as="geometry" />
        </mxCell>
        <mxCell id="ZBIgJgPECK3UeOJvwfk8-4" value="+direccion: String" style="text;align=left;verticalAlign=top;spacingLeft=4;spacingRight=4;overflow=hidden;rotatable=0;points=[[0,0.5],[1,0.5]];portConstraint=eastwest;rounded=1;shadow=0;html=0;labelBackgroundColor=none;fontColor=#000000;fontSize=17;" vertex="1" parent="zkfFHV4jXpPFQw0GAbJ--0">
          <mxGeometry y="190" width="510" height="30" as="geometry" />
        </mxCell>
        <mxCell id="ZBIgJgPECK3UeOJvwfk8-9" value="-contrasenya: String" style="text;align=left;verticalAlign=top;spacingLeft=4;spacingRight=4;overflow=hidden;rotatable=0;points=[[0,0.5],[1,0.5]];portConstraint=eastwest;rounded=1;shadow=0;html=0;labelBackgroundColor=none;fontColor=#000000;fontSize=17;" vertex="1" parent="zkfFHV4jXpPFQw0GAbJ--0">
          <mxGeometry y="220" width="510" height="30" as="geometry" />
        </mxCell>
        <mxCell id="ZBIgJgPECK3UeOJvwfk8-10" value="+fechaNacimiento: Date" style="text;align=left;verticalAlign=top;spacingLeft=4;spacingRight=4;overflow=hidden;rotatable=0;points=[[0,0.5],[1,0.5]];portConstraint=eastwest;rounded=1;shadow=0;html=0;labelBackgroundColor=none;fontColor=#000000;fontSize=17;" vertex="1" parent="zkfFHV4jXpPFQw0GAbJ--0">
          <mxGeometry y="250" width="510" height="30" as="geometry" />
        </mxCell>
        <mxCell id="ZBIgJgPECK3UeOJvwfk8-5" value="+rol: String" style="text;align=left;verticalAlign=top;spacingLeft=4;spacingRight=4;overflow=hidden;rotatable=0;points=[[0,0.5],[1,0.5]];portConstraint=eastwest;rounded=1;shadow=0;html=0;labelBackgroundColor=none;fontColor=#000000;fontSize=17;" vertex="1" parent="zkfFHV4jXpPFQw0GAbJ--0">
          <mxGeometry y="280" width="510" height="30" as="geometry" />
        </mxCell>
        <mxCell id="zkfFHV4jXpPFQw0GAbJ--4" value="" style="line;html=1;strokeWidth=1;align=left;verticalAlign=middle;spacingTop=-1;spacingLeft=3;spacingRight=3;rotatable=0;labelPosition=right;points=[];portConstraint=eastwest;labelBackgroundColor=none;fillColor=#21C0A5;strokeColor=#006658;fontColor=#000000;rounded=1;fontSize=17;" vertex="1" parent="zkfFHV4jXpPFQw0GAbJ--0">
          <mxGeometry y="310" width="510" height="8" as="geometry" />
        </mxCell>
        <mxCell id="zkfFHV4jXpPFQw0GAbJ--5" value="+crearUsuario(String&#xa;nombre, String apellidos, Int id, String status,Â  String correo, Int telefono, String&#xa;direccion, String contrasenya, Date fechaNacimiento, String rol&#xa;): Boolean" style="text;align=left;verticalAlign=top;spacingLeft=4;spacingRight=4;overflow=hidden;rotatable=0;points=[[0,0.5],[1,0.5]];portConstraint=eastwest;labelBackgroundColor=none;fontColor=#000000;rounded=1;fontSize=17;" vertex="1" parent="zkfFHV4jXpPFQw0GAbJ--0">
          <mxGeometry y="318" width="510" height="102" as="geometry" />
        </mxCell>
        <mxCell id="O71D5WkDdYet5WOugUI6-13" value="+eliminarUsuario(int id): void" style="text;align=left;verticalAlign=top;spacingLeft=4;spacingRight=4;overflow=hidden;rotatable=0;points=[[0,0.5],[1,0.5]];portConstraint=eastwest;labelBackgroundColor=none;fontColor=#000000;rounded=1;fontSize=17;" vertex="1" parent="zkfFHV4jXpPFQw0GAbJ--0">
          <mxGeometry y="420" width="510" height="26" as="geometry" />
        </mxCell>
        <mxCell id="O71D5WkDdYet5WOugUI6-14" value="-iniciarSesion(String correo, String contrasenya): Boolean" style="text;align=left;verticalAlign=top;spacingLeft=4;spacingRight=4;overflow=hidden;rotatable=0;points=[[0,0.5],[1,0.5]];portConstraint=eastwest;labelBackgroundColor=none;fontColor=#000000;rounded=1;fontSize=17;" vertex="1" parent="zkfFHV4jXpPFQw0GAbJ--0">
          <mxGeometry y="446" width="510" height="26" as="geometry" />
        </mxCell>
        <mxCell id="O71D5WkDdYet5WOugUI6-15" value="+get para todos los atributos" style="text;align=left;verticalAlign=top;spacingLeft=4;spacingRight=4;overflow=hidden;rotatable=0;points=[[0,0.5],[1,0.5]];portConstraint=eastwest;labelBackgroundColor=none;fontColor=#000000;rounded=1;fontSize=17;" vertex="1" parent="zkfFHV4jXpPFQw0GAbJ--0">
          <mxGeometry y="472" width="510" height="26" as="geometry" />
        </mxCell>
        <mxCell id="O71D5WkDdYet5WOugUI6-16" value="+set para todos los atributos" style="text;align=left;verticalAlign=top;spacingLeft=4;spacingRight=4;overflow=hidden;rotatable=0;points=[[0,0.5],[1,0.5]];portConstraint=eastwest;labelBackgroundColor=none;fontColor=#000000;rounded=1;fontSize=17;" vertex="1" parent="zkfFHV4jXpPFQw0GAbJ--0">
          <mxGeometry y="498" width="510" height="26" as="geometry" />
        </mxCell>
        <mxCell id="O71D5WkDdYet5WOugUI6-17" value="-cerrarSesion():void" style="text;align=left;verticalAlign=top;spacingLeft=4;spacingRight=4;overflow=hidden;rotatable=0;points=[[0,0.5],[1,0.5]];portConstraint=eastwest;labelBackgroundColor=none;fontColor=#000000;rounded=1;fontSize=17;" vertex="1" parent="zkfFHV4jXpPFQw0GAbJ--0">
          <mxGeometry y="524" width="510" height="26" as="geometry" />
        </mxCell>
        <mxCell id="O71D5WkDdYet5WOugUI6-19" value="+modificarDatos():Boolean" style="text;align=left;verticalAlign=top;spacingLeft=4;spacingRight=4;overflow=hidden;rotatable=0;points=[[0,0.5],[1,0.5]];portConstraint=eastwest;labelBackgroundColor=none;fontColor=#000000;rounded=1;fontSize=17;" vertex="1" parent="zkfFHV4jXpPFQw0GAbJ--0">
          <mxGeometry y="550" width="510" height="26" as="geometry" />
        </mxCell>
        <mxCell id="zkfFHV4jXpPFQw0GAbJ--17" value="Reclamacion" style="swimlane;fontStyle=3;align=center;verticalAlign=top;childLayout=stackLayout;horizontal=1;startSize=26;horizontalStack=0;resizeParent=1;resizeLast=0;collapsible=1;marginBottom=0;rounded=1;shadow=0;strokeWidth=1;labelBackgroundColor=none;fillColor=#21C0A5;strokeColor=#006658;fontColor=#000000;fontSize=17;" vertex="1" parent="WIyWlLk6GJQsqaUBKTNV-1">
          <mxGeometry x="547" y="1363" width="300" height="190" as="geometry">
            <mxRectangle x="550" y="140" width="160" height="26" as="alternateBounds" />
          </mxGeometry>
        </mxCell>
        <mxCell id="zkfFHV4jXpPFQw0GAbJ--18" value="+nombre: String" style="text;align=left;verticalAlign=top;spacingLeft=4;spacingRight=4;overflow=hidden;rotatable=0;points=[[0,0.5],[1,0.5]];portConstraint=eastwest;labelBackgroundColor=none;fontColor=#000000;rounded=1;fontSize=17;" vertex="1" parent="zkfFHV4jXpPFQw0GAbJ--17">
          <mxGeometry y="26" width="300" height="26" as="geometry" />
        </mxCell>
        <mxCell id="zkfFHV4jXpPFQw0GAbJ--19" value="+id: Int" style="text;align=left;verticalAlign=top;spacingLeft=4;spacingRight=4;overflow=hidden;rotatable=0;points=[[0,0.5],[1,0.5]];portConstraint=eastwest;rounded=1;shadow=0;html=0;labelBackgroundColor=none;fontColor=#000000;fontSize=17;" vertex="1" parent="zkfFHV4jXpPFQw0GAbJ--17">
          <mxGeometry y="52" width="300" height="26" as="geometry" />
        </mxCell>
        <mxCell id="zkfFHV4jXpPFQw0GAbJ--20" value="+tipo: List" style="text;align=left;verticalAlign=top;spacingLeft=4;spacingRight=4;overflow=hidden;rotatable=0;points=[[0,0.5],[1,0.5]];portConstraint=eastwest;rounded=1;shadow=0;html=0;labelBackgroundColor=none;fontColor=#000000;fontSize=17;" vertex="1" parent="zkfFHV4jXpPFQw0GAbJ--17">
          <mxGeometry y="78" width="300" height="26" as="geometry" />
        </mxCell>
        <mxCell id="zkfFHV4jXpPFQw0GAbJ--21" value="+status: List" style="text;align=left;verticalAlign=top;spacingLeft=4;spacingRight=4;overflow=hidden;rotatable=0;points=[[0,0.5],[1,0.5]];portConstraint=eastwest;rounded=1;shadow=0;html=0;labelBackgroundColor=none;fontColor=#000000;fontSize=17;" vertex="1" parent="zkfFHV4jXpPFQw0GAbJ--17">
          <mxGeometry y="104" width="300" height="26" as="geometry" />
        </mxCell>
        <mxCell id="zkfFHV4jXpPFQw0GAbJ--23" value="" style="line;html=1;strokeWidth=1;align=left;verticalAlign=middle;spacingTop=-1;spacingLeft=3;spacingRight=3;rotatable=0;labelPosition=right;points=[];portConstraint=eastwest;labelBackgroundColor=none;fillColor=#21C0A5;strokeColor=#006658;fontColor=#000000;rounded=1;fontSize=17;" vertex="1" parent="zkfFHV4jXpPFQw0GAbJ--17">
          <mxGeometry y="130" width="300" height="8" as="geometry" />
        </mxCell>
        <mxCell id="zkfFHV4jXpPFQw0GAbJ--24" value="+crearReclamacion(): Boolean" style="text;align=left;verticalAlign=top;spacingLeft=4;spacingRight=4;overflow=hidden;rotatable=0;points=[[0,0.5],[1,0.5]];portConstraint=eastwest;labelBackgroundColor=none;fontColor=#000000;rounded=1;fontSize=17;" vertex="1" parent="zkfFHV4jXpPFQw0GAbJ--17">
          <mxGeometry y="138" width="300" height="26" as="geometry" />
        </mxCell>
        <mxCell id="ZBIgJgPECK3UeOJvwfk8-14" value="+filtroReclamacionPorTipo(): Boolean" style="text;align=left;verticalAlign=top;spacingLeft=4;spacingRight=4;overflow=hidden;rotatable=0;points=[[0,0.5],[1,0.5]];portConstraint=eastwest;labelBackgroundColor=none;fontColor=#000000;rounded=1;fontSize=17;" vertex="1" parent="zkfFHV4jXpPFQw0GAbJ--17">
          <mxGeometry y="164" width="300" height="26" as="geometry" />
        </mxCell>
        <mxCell id="O71D5WkDdYet5WOugUI6-20" value="Cliente" style="swimlane;fontStyle=3;align=center;verticalAlign=top;childLayout=stackLayout;horizontal=1;startSize=26;horizontalStack=0;resizeParent=1;resizeLast=0;collapsible=1;marginBottom=0;rounded=1;shadow=0;strokeWidth=1;labelBackgroundColor=none;fillColor=#21C0A5;strokeColor=#006658;fontColor=#000000;fontSize=17;" vertex="1" parent="WIyWlLk6GJQsqaUBKTNV-1">
          <mxGeometry x="-389" y="993" width="470" height="360" as="geometry">
            <mxRectangle x="220" y="120" width="160" height="26" as="alternateBounds" />
          </mxGeometry>
        </mxCell>
        <mxCell id="O71D5WkDdYet5WOugUI6-21" value="+dni:String" style="text;align=left;verticalAlign=top;spacingLeft=4;spacingRight=4;overflow=hidden;rotatable=0;points=[[0,0.5],[1,0.5]];portConstraint=eastwest;labelBackgroundColor=none;fontColor=#000000;rounded=1;fontSize=17;" vertex="1" parent="O71D5WkDdYet5WOugUI6-20">
          <mxGeometry y="26" width="470" height="26" as="geometry" />
        </mxCell>
        <mxCell id="O71D5WkDdYet5WOugUI6-22" value="+edad: Int" style="text;align=left;verticalAlign=top;spacingLeft=4;spacingRight=4;overflow=hidden;rotatable=0;points=[[0,0.5],[1,0.5]];portConstraint=eastwest;rounded=1;shadow=0;html=0;labelBackgroundColor=none;fontColor=#000000;fontSize=17;" vertex="1" parent="O71D5WkDdYet5WOugUI6-20">
          <mxGeometry y="52" width="470" height="26" as="geometry" />
        </mxCell>
        <mxCell id="O71D5WkDdYet5WOugUI6-23" value="+idPolizaContratada: List" style="text;align=left;verticalAlign=top;spacingLeft=4;spacingRight=4;overflow=hidden;rotatable=0;points=[[0,0.5],[1,0.5]];portConstraint=eastwest;rounded=1;shadow=0;html=0;labelBackgroundColor=none;fontColor=#000000;fontSize=17;" vertex="1" parent="O71D5WkDdYet5WOugUI6-20">
          <mxGeometry y="78" width="470" height="22" as="geometry" />
        </mxCell>
        <mxCell id="ZBIgJgPECK3UeOJvwfk8-11" value="+status: String" style="text;align=left;verticalAlign=top;spacingLeft=4;spacingRight=4;overflow=hidden;rotatable=0;points=[[0,0.5],[1,0.5]];portConstraint=eastwest;rounded=1;shadow=0;html=0;labelBackgroundColor=none;fontColor=#000000;fontSize=17;" vertex="1" parent="O71D5WkDdYet5WOugUI6-20">
          <mxGeometry y="100" width="470" height="26" as="geometry" />
        </mxCell>
        <mxCell id="O71D5WkDdYet5WOugUI6-24" value="+nombrePolizaContratada: List&lt;Poliza&gt;" style="text;align=left;verticalAlign=top;spacingLeft=4;spacingRight=4;overflow=hidden;rotatable=0;points=[[0,0.5],[1,0.5]];portConstraint=eastwest;rounded=1;shadow=0;html=0;labelBackgroundColor=none;fontColor=#000000;fontSize=17;" vertex="1" parent="O71D5WkDdYet5WOugUI6-20">
          <mxGeometry y="126" width="470" height="30" as="geometry" />
        </mxCell>
        <mxCell id="O71D5WkDdYet5WOugUI6-25" value="+prima: Float" style="text;align=left;verticalAlign=top;spacingLeft=4;spacingRight=4;overflow=hidden;rotatable=0;points=[[0,0.5],[1,0.5]];portConstraint=eastwest;rounded=1;shadow=0;html=0;labelBackgroundColor=none;fontColor=#000000;fontSize=17;" vertex="1" parent="O71D5WkDdYet5WOugUI6-20">
          <mxGeometry y="156" width="470" height="22" as="geometry" />
        </mxCell>
        <mxCell id="O71D5WkDdYet5WOugUI6-26" value="+fechaCaducidad: Date &lt;Poliza&gt;" style="text;align=left;verticalAlign=top;spacingLeft=4;spacingRight=4;overflow=hidden;rotatable=0;points=[[0,0.5],[1,0.5]];portConstraint=eastwest;rounded=1;shadow=0;html=0;labelBackgroundColor=none;fontColor=#000000;fontSize=17;" vertex="1" parent="O71D5WkDdYet5WOugUI6-20">
          <mxGeometry y="178" width="470" height="22" as="geometry" />
        </mxCell>
        <mxCell id="ZBIgJgPECK3UeOJvwfk8-12" value="+reclamaciones: List&lt;Reclamacion&gt;" style="text;align=left;verticalAlign=top;spacingLeft=4;spacingRight=4;overflow=hidden;rotatable=0;points=[[0,0.5],[1,0.5]];portConstraint=eastwest;rounded=1;shadow=0;html=0;labelBackgroundColor=none;fontColor=#000000;fontSize=17;" vertex="1" parent="O71D5WkDdYet5WOugUI6-20">
          <mxGeometry y="200" width="470" height="22" as="geometry" />
        </mxCell>
        <mxCell id="O71D5WkDdYet5WOugUI6-30" value="" style="line;html=1;strokeWidth=1;align=left;verticalAlign=middle;spacingTop=-1;spacingLeft=3;spacingRight=3;rotatable=0;labelPosition=right;points=[];portConstraint=eastwest;labelBackgroundColor=none;fillColor=#21C0A5;strokeColor=#006658;fontColor=#000000;rounded=1;fontSize=17;" vertex="1" parent="O71D5WkDdYet5WOugUI6-20">
          <mxGeometry y="222" width="470" height="8" as="geometry" />
        </mxCell>
        <mxCell id="O71D5WkDdYet5WOugUI6-31" value="+busquedaPolizaNombre(String nombre): List&lt;Poliza&gt;" style="text;align=left;verticalAlign=top;spacingLeft=4;spacingRight=4;overflow=hidden;rotatable=0;points=[[0,0.5],[1,0.5]];portConstraint=eastwest;labelBackgroundColor=none;fontColor=#000000;rounded=1;fontSize=17;" vertex="1" parent="O71D5WkDdYet5WOugUI6-20">
          <mxGeometry y="230" width="470" height="26" as="geometry" />
        </mxCell>
        <mxCell id="O71D5WkDdYet5WOugUI6-32" value="+busquedaPolizaTipo(String tipo): List&lt;Poliza&gt;" style="text;align=left;verticalAlign=top;spacingLeft=4;spacingRight=4;overflow=hidden;rotatable=0;points=[[0,0.5],[1,0.5]];portConstraint=eastwest;labelBackgroundColor=none;fontColor=#000000;rounded=1;fontSize=17;" vertex="1" parent="O71D5WkDdYet5WOugUI6-20">
          <mxGeometry y="256" width="470" height="26" as="geometry" />
        </mxCell>
        <mxCell id="O71D5WkDdYet5WOugUI6-33" value="+busquedaPolizaCobertura(List coberturas): List&lt;Poliza&gt;" style="text;align=left;verticalAlign=top;spacingLeft=4;spacingRight=4;overflow=hidden;rotatable=0;points=[[0,0.5],[1,0.5]];portConstraint=eastwest;labelBackgroundColor=none;fontColor=#000000;rounded=1;fontSize=17;" vertex="1" parent="O71D5WkDdYet5WOugUI6-20">
          <mxGeometry y="282" width="470" height="26" as="geometry" />
        </mxCell>
        <mxCell id="O71D5WkDdYet5WOugUI6-34" value="+calculoPrimaPorCliente(Float precio): Float" style="text;align=left;verticalAlign=top;spacingLeft=4;spacingRight=4;overflow=hidden;rotatable=0;points=[[0,0.5],[1,0.5]];portConstraint=eastwest;labelBackgroundColor=none;fontColor=#000000;rounded=1;fontSize=17;" vertex="1" parent="O71D5WkDdYet5WOugUI6-20">
          <mxGeometry y="308" width="470" height="26" as="geometry" />
        </mxCell>
        <mxCell id="O71D5WkDdYet5WOugUI6-35" value="+realizarPago(): boolean" style="text;align=left;verticalAlign=top;spacingLeft=4;spacingRight=4;overflow=hidden;rotatable=0;points=[[0,0.5],[1,0.5]];portConstraint=eastwest;labelBackgroundColor=none;fontColor=#000000;rounded=1;fontSize=17;" vertex="1" parent="O71D5WkDdYet5WOugUI6-20">
          <mxGeometry y="334" width="470" height="26" as="geometry" />
        </mxCell>
        <mxCell id="O71D5WkDdYet5WOugUI6-38" value="AgenteSeguro" style="swimlane;fontStyle=3;align=center;verticalAlign=top;childLayout=stackLayout;horizontal=1;startSize=26;horizontalStack=0;resizeParent=1;resizeLast=0;collapsible=1;marginBottom=0;rounded=1;shadow=0;strokeWidth=1;labelBackgroundColor=none;fillColor=#21C0A5;strokeColor=#006658;fontColor=#000000;fontSize=17;" vertex="1" parent="WIyWlLk6GJQsqaUBKTNV-1">
          <mxGeometry x="727" y="924" width="460" height="282" as="geometry">
            <mxRectangle x="220" y="120" width="160" height="26" as="alternateBounds" />
          </mxGeometry>
        </mxCell>
        <mxCell id="O71D5WkDdYet5WOugUI6-39" value="+ClientesActivos:List&lt;Cliente&gt;" style="text;align=left;verticalAlign=top;spacingLeft=4;spacingRight=4;overflow=hidden;rotatable=0;points=[[0,0.5],[1,0.5]];portConstraint=eastwest;labelBackgroundColor=none;fontColor=#000000;rounded=1;fontSize=17;" vertex="1" parent="O71D5WkDdYet5WOugUI6-38">
          <mxGeometry y="26" width="460" height="26" as="geometry" />
        </mxCell>
        <mxCell id="O71D5WkDdYet5WOugUI6-40" value="+reclamaciones:List&lt;Reclamacion&gt;" style="text;align=left;verticalAlign=top;spacingLeft=4;spacingRight=4;overflow=hidden;rotatable=0;points=[[0,0.5],[1,0.5]];portConstraint=eastwest;rounded=1;shadow=0;html=0;labelBackgroundColor=none;fontColor=#000000;fontSize=17;" vertex="1" parent="O71D5WkDdYet5WOugUI6-38">
          <mxGeometry y="52" width="460" height="26" as="geometry" />
        </mxCell>
        <mxCell id="O71D5WkDdYet5WOugUI6-41" value="+polizasContratadas:List&lt;Cliente&gt;" style="text;align=left;verticalAlign=top;spacingLeft=4;spacingRight=4;overflow=hidden;rotatable=0;points=[[0,0.5],[1,0.5]];portConstraint=eastwest;rounded=1;shadow=0;html=0;labelBackgroundColor=none;fontColor=#000000;fontSize=17;" vertex="1" parent="O71D5WkDdYet5WOugUI6-38">
          <mxGeometry y="78" width="460" height="22" as="geometry" />
        </mxCell>
        <mxCell id="O71D5WkDdYet5WOugUI6-45" value="" style="line;html=1;strokeWidth=1;align=left;verticalAlign=middle;spacingTop=-1;spacingLeft=3;spacingRight=3;rotatable=0;labelPosition=right;points=[];portConstraint=eastwest;labelBackgroundColor=none;fillColor=#21C0A5;strokeColor=#006658;fontColor=#000000;rounded=1;fontSize=17;" vertex="1" parent="O71D5WkDdYet5WOugUI6-38">
          <mxGeometry y="100" width="460" height="8" as="geometry" />
        </mxCell>
        <mxCell id="ZBIgJgPECK3UeOJvwfk8-13" value="+crearCliente(String nombre, String apellidos, Int id,Â &#xa;String status,Â  String correo, Int telefono, String&#xa;direccion, String contrasenya, Date fechaNacimiento,Â &#xa;String rol): Boolean" style="text;align=left;verticalAlign=top;spacingLeft=4;spacingRight=4;overflow=hidden;rotatable=0;points=[[0,0.5],[1,0.5]];portConstraint=eastwest;labelBackgroundColor=none;fontColor=#000000;rounded=1;fontSize=17;" vertex="1" parent="O71D5WkDdYet5WOugUI6-38">
          <mxGeometry y="108" width="460" height="92" as="geometry" />
        </mxCell>
        <mxCell id="O71D5WkDdYet5WOugUI6-46" value="+gestionarReclamacion(Int id, String status): Boolean" style="text;align=left;verticalAlign=top;spacingLeft=4;spacingRight=4;overflow=hidden;rotatable=0;points=[[0,0.5],[1,0.5]];portConstraint=eastwest;labelBackgroundColor=none;fontColor=#000000;rounded=1;fontSize=17;" vertex="1" parent="O71D5WkDdYet5WOugUI6-38">
          <mxGeometry y="200" width="460" height="26" as="geometry" />
        </mxCell>
        <mxCell id="O71D5WkDdYet5WOugUI6-47" value="+generarInforme(Cliente cliente, Poliza poliza,Â &#xa;Reclamacion reclamacion): File" style="text;align=left;verticalAlign=top;spacingLeft=4;spacingRight=4;overflow=hidden;rotatable=0;points=[[0,0.5],[1,0.5]];portConstraint=eastwest;labelBackgroundColor=none;fontColor=#000000;rounded=1;fontSize=17;" vertex="1" parent="O71D5WkDdYet5WOugUI6-38">
          <mxGeometry y="226" width="460" height="54" as="geometry" />
        </mxCell>
        <mxCell id="O71D5WkDdYet5WOugUI6-51" value="Poliza" style="swimlane;fontStyle=3;align=center;verticalAlign=top;childLayout=stackLayout;horizontal=1;startSize=26;horizontalStack=0;resizeParent=1;resizeLast=0;collapsible=1;marginBottom=0;rounded=1;shadow=0;strokeWidth=1;labelBackgroundColor=none;fillColor=#21C0A5;strokeColor=#006658;fontColor=#000000;fontFamily=Helvetica;fontSize=17;" vertex="1" parent="WIyWlLk6GJQsqaUBKTNV-1">
          <mxGeometry x="437" y="473" width="510" height="400" as="geometry">
            <mxRectangle x="550" y="140" width="160" height="26" as="alternateBounds" />
          </mxGeometry>
        </mxCell>
        <mxCell id="O71D5WkDdYet5WOugUI6-52" value="+nombre: String" style="text;align=left;verticalAlign=top;spacingLeft=4;spacingRight=4;overflow=hidden;rotatable=0;points=[[0,0.5],[1,0.5]];portConstraint=eastwest;labelBackgroundColor=none;fontColor=#000000;rounded=1;fontSize=17;" vertex="1" parent="O71D5WkDdYet5WOugUI6-51">
          <mxGeometry y="26" width="510" height="26" as="geometry" />
        </mxCell>
        <mxCell id="O71D5WkDdYet5WOugUI6-53" value="+id: Int" style="text;align=left;verticalAlign=top;spacingLeft=4;spacingRight=4;overflow=hidden;rotatable=0;points=[[0,0.5],[1,0.5]];portConstraint=eastwest;rounded=1;shadow=0;html=0;labelBackgroundColor=none;fontColor=#000000;fontSize=17;" vertex="1" parent="O71D5WkDdYet5WOugUI6-51">
          <mxGeometry y="52" width="510" height="26" as="geometry" />
        </mxCell>
        <mxCell id="O71D5WkDdYet5WOugUI6-54" value="+tipo: String" style="text;align=left;verticalAlign=top;spacingLeft=4;spacingRight=4;overflow=hidden;rotatable=0;points=[[0,0.5],[1,0.5]];portConstraint=eastwest;rounded=1;shadow=0;html=0;labelBackgroundColor=none;fontColor=#000000;fontSize=17;" vertex="1" parent="O71D5WkDdYet5WOugUI6-51">
          <mxGeometry y="78" width="510" height="26" as="geometry" />
        </mxCell>
        <mxCell id="O71D5WkDdYet5WOugUI6-58" value="+precio: Float" style="text;align=left;verticalAlign=top;spacingLeft=4;spacingRight=4;overflow=hidden;rotatable=0;points=[[0,0.5],[1,0.5]];portConstraint=eastwest;rounded=1;shadow=0;html=0;labelBackgroundColor=none;fontColor=#000000;fontSize=17;" vertex="1" parent="O71D5WkDdYet5WOugUI6-51">
          <mxGeometry y="104" width="510" height="26" as="geometry" />
        </mxCell>
        <mxCell id="O71D5WkDdYet5WOugUI6-55" value="+coberturas: List" style="text;align=left;verticalAlign=top;spacingLeft=4;spacingRight=4;overflow=hidden;rotatable=0;points=[[0,0.5],[1,0.5]];portConstraint=eastwest;rounded=1;shadow=0;html=0;labelBackgroundColor=none;fontColor=#000000;fontSize=17;" vertex="1" parent="O71D5WkDdYet5WOugUI6-51">
          <mxGeometry y="130" width="510" height="26" as="geometry" />
        </mxCell>
        <mxCell id="O71D5WkDdYet5WOugUI6-59" value="+exclusiones: List" style="text;align=left;verticalAlign=top;spacingLeft=4;spacingRight=4;overflow=hidden;rotatable=0;points=[[0,0.5],[1,0.5]];portConstraint=eastwest;rounded=1;shadow=0;html=0;labelBackgroundColor=none;fontColor=#000000;fontSize=17;" vertex="1" parent="O71D5WkDdYet5WOugUI6-51">
          <mxGeometry y="156" width="510" height="26" as="geometry" />
        </mxCell>
        <mxCell id="O71D5WkDdYet5WOugUI6-60" value="+requisitos: List" style="text;align=left;verticalAlign=top;spacingLeft=4;spacingRight=4;overflow=hidden;rotatable=0;points=[[0,0.5],[1,0.5]];portConstraint=eastwest;rounded=1;shadow=0;html=0;labelBackgroundColor=none;fontColor=#000000;fontSize=17;" vertex="1" parent="O71D5WkDdYet5WOugUI6-51">
          <mxGeometry y="182" width="510" height="26" as="geometry" />
        </mxCell>
        <mxCell id="O71D5WkDdYet5WOugUI6-61" value="+fechaCaducidad: Date" style="text;align=left;verticalAlign=top;spacingLeft=4;spacingRight=4;overflow=hidden;rotatable=0;points=[[0,0.5],[1,0.5]];portConstraint=eastwest;rounded=1;shadow=0;html=0;labelBackgroundColor=none;fontColor=#000000;fontSize=17;" vertex="1" parent="O71D5WkDdYet5WOugUI6-51">
          <mxGeometry y="208" width="510" height="26" as="geometry" />
        </mxCell>
        <mxCell id="ZBIgJgPECK3UeOJvwfk8-15" value="+get para todos los atributos" style="text;align=left;verticalAlign=top;spacingLeft=4;spacingRight=4;overflow=hidden;rotatable=0;points=[[0,0.5],[1,0.5]];portConstraint=eastwest;labelBackgroundColor=none;fontColor=#000000;rounded=1;fontSize=17;" vertex="1" parent="O71D5WkDdYet5WOugUI6-51">
          <mxGeometry y="234" width="510" height="26" as="geometry" />
        </mxCell>
        <mxCell id="ZBIgJgPECK3UeOJvwfk8-16" value="+set para todos los atributos" style="text;align=left;verticalAlign=top;spacingLeft=4;spacingRight=4;overflow=hidden;rotatable=0;points=[[0,0.5],[1,0.5]];portConstraint=eastwest;labelBackgroundColor=none;fontColor=#000000;rounded=1;fontSize=17;" vertex="1" parent="O71D5WkDdYet5WOugUI6-51">
          <mxGeometry y="260" width="510" height="26" as="geometry" />
        </mxCell>
        <mxCell id="O71D5WkDdYet5WOugUI6-56" value="" style="line;html=1;strokeWidth=1;align=left;verticalAlign=middle;spacingTop=-1;spacingLeft=3;spacingRight=3;rotatable=0;labelPosition=right;points=[];portConstraint=eastwest;labelBackgroundColor=none;fillColor=#21C0A5;strokeColor=#006658;fontColor=#000000;rounded=1;fontSize=17;" vertex="1" parent="O71D5WkDdYet5WOugUI6-51">
          <mxGeometry y="286" width="510" height="8" as="geometry" />
        </mxCell>
        <mxCell id="O71D5WkDdYet5WOugUI6-57" value="+contratarPoliza(String tipo, Float precio, Date fechaCaducidad,Â &#xa;Cliente): boolean" style="text;align=left;verticalAlign=top;spacingLeft=4;spacingRight=4;overflow=hidden;rotatable=0;points=[[0,0.5],[1,0.5]];portConstraint=eastwest;labelBackgroundColor=none;fontColor=#000000;rounded=1;fontSize=17;" vertex="1" parent="O71D5WkDdYet5WOugUI6-51">
          <mxGeometry y="294" width="510" height="56" as="geometry" />
        </mxCell>
        <mxCell id="O71D5WkDdYet5WOugUI6-73" value="+renovarPoliza(String tipo, Float precio, Date fechaCaducidad,Â &#xa;Cliente): Boolean" style="text;align=left;verticalAlign=top;spacingLeft=4;spacingRight=4;overflow=hidden;rotatable=0;points=[[0,0.5],[1,0.5]];portConstraint=eastwest;labelBackgroundColor=none;fontColor=#000000;rounded=1;fontSize=17;" vertex="1" parent="O71D5WkDdYet5WOugUI6-51">
          <mxGeometry y="350" width="510" height="50" as="geometry" />
        </mxCell>
        <mxCell id="O71D5WkDdYet5WOugUI6-62" value="Notificacion" style="swimlane;fontStyle=3;align=center;verticalAlign=top;childLayout=stackLayout;horizontal=1;startSize=26;horizontalStack=0;resizeParent=1;resizeLast=0;collapsible=1;marginBottom=0;rounded=1;shadow=0;strokeWidth=1;labelBackgroundColor=none;fillColor=#21C0A5;strokeColor=#006658;fontColor=#000000;fontSize=17;" vertex="1" parent="WIyWlLk6GJQsqaUBKTNV-1">
          <mxGeometry x="-338" y="1463" width="675" height="196" as="geometry">
            <mxRectangle x="550" y="140" width="160" height="26" as="alternateBounds" />
          </mxGeometry>
        </mxCell>
        <mxCell id="O71D5WkDdYet5WOugUI6-63" value="+fecha:Date" style="text;align=left;verticalAlign=top;spacingLeft=4;spacingRight=4;overflow=hidden;rotatable=0;points=[[0,0.5],[1,0.5]];portConstraint=eastwest;labelBackgroundColor=none;fontColor=#000000;rounded=1;fontSize=17;" vertex="1" parent="O71D5WkDdYet5WOugUI6-62">
          <mxGeometry y="26" width="675" height="26" as="geometry" />
        </mxCell>
        <mxCell id="O71D5WkDdYet5WOugUI6-64" value="+text:String" style="text;align=left;verticalAlign=top;spacingLeft=4;spacingRight=4;overflow=hidden;rotatable=0;points=[[0,0.5],[1,0.5]];portConstraint=eastwest;rounded=1;shadow=0;html=0;labelBackgroundColor=none;fontColor=#000000;fontSize=17;" vertex="1" parent="O71D5WkDdYet5WOugUI6-62">
          <mxGeometry y="52" width="675" height="26" as="geometry" />
        </mxCell>
        <mxCell id="O71D5WkDdYet5WOugUI6-65" value="+id: Int" style="text;align=left;verticalAlign=top;spacingLeft=4;spacingRight=4;overflow=hidden;rotatable=0;points=[[0,0.5],[1,0.5]];portConstraint=eastwest;rounded=1;shadow=0;html=0;labelBackgroundColor=none;fontColor=#000000;fontSize=17;" vertex="1" parent="O71D5WkDdYet5WOugUI6-62">
          <mxGeometry y="78" width="675" height="26" as="geometry" />
        </mxCell>
        <mxCell id="O71D5WkDdYet5WOugUI6-71" value="" style="line;html=1;strokeWidth=1;align=left;verticalAlign=middle;spacingTop=-1;spacingLeft=3;spacingRight=3;rotatable=0;labelPosition=right;points=[];portConstraint=eastwest;labelBackgroundColor=none;fillColor=#21C0A5;strokeColor=#006658;fontColor=#000000;rounded=1;fontSize=17;" vertex="1" parent="O71D5WkDdYet5WOugUI6-62">
          <mxGeometry y="104" width="675" height="8" as="geometry" />
        </mxCell>
        <mxCell id="O71D5WkDdYet5WOugUI6-72" value="+generarNotificacion(String nombre, String tipo, Date fechaCaducidad):Â String(mensaje)" style="text;align=left;verticalAlign=top;spacingLeft=4;spacingRight=4;overflow=hidden;rotatable=0;points=[[0,0.5],[1,0.5]];portConstraint=eastwest;labelBackgroundColor=none;fontColor=#000000;rounded=1;fontSize=17;" vertex="1" parent="O71D5WkDdYet5WOugUI6-62">
          <mxGeometry y="112" width="675" height="38" as="geometry" />
        </mxCell>
        <mxCell id="O71D5WkDdYet5WOugUI6-74" value="+enviarNotificacion(String correo): void (enviaria las notificaciones por correo)" style="text;align=left;verticalAlign=top;spacingLeft=4;spacingRight=4;overflow=hidden;rotatable=0;points=[[0,0.5],[1,0.5]];portConstraint=eastwest;labelBackgroundColor=none;fontColor=#000000;rounded=1;fontSize=17;" vertex="1" parent="O71D5WkDdYet5WOugUI6-62">
          <mxGeometry y="150" width="675" height="26" as="geometry" />
        </mxCell>
        <mxCell id="O71D5WkDdYet5WOugUI6-76" value="" style="endArrow=open;endFill=1;endSize=12;html=1;rounded=1;fontSize=17;curved=1;entryX=0;entryY=0.5;entryDx=0;entryDy=0;labelBackgroundColor=none;strokeColor=#006658;fontColor=#000000;exitX=1;exitY=0.5;exitDx=0;exitDy=0;" edge="1" parent="WIyWlLk6GJQsqaUBKTNV-1" target="ZBIgJgPECK3UeOJvwfk8-13" source="O71D5WkDdYet5WOugUI6-23">
          <mxGeometry width="160" relative="1" as="geometry">
            <mxPoint x="167" y="1004" as="sourcePoint" />
            <mxPoint x="317" y="1003.5" as="targetPoint" />
          </mxGeometry>
        </mxCell>
        <mxCell id="O71D5WkDdYet5WOugUI6-78" value="" style="endArrow=open;endFill=1;endSize=12;html=1;rounded=1;fontSize=17;curved=1;exitX=0;exitY=0.5;exitDx=0;exitDy=0;labelBackgroundColor=none;strokeColor=#006658;fontColor=#000000;entryX=1;entryY=0.5;entryDx=0;entryDy=0;" edge="1" parent="WIyWlLk6GJQsqaUBKTNV-1" source="O71D5WkDdYet5WOugUI6-46" target="O71D5WkDdYet5WOugUI6-24">
          <mxGeometry width="160" relative="1" as="geometry">
            <mxPoint x="317" y="1043" as="sourcePoint" />
            <mxPoint x="167" y="1043" as="targetPoint" />
          </mxGeometry>
        </mxCell>
        <mxCell id="O71D5WkDdYet5WOugUI6-80" value="&lt;span style=&quot;font-size: 17px; line-height: 107%;&quot;&gt;&amp;nbsp;0..*&lt;/span&gt;" style="text;strokeColor=none;fillColor=none;html=1;align=center;verticalAlign=middle;whiteSpace=wrap;rounded=1;fontSize=17;labelBackgroundColor=none;fontColor=#000000;" vertex="1" parent="WIyWlLk6GJQsqaUBKTNV-1">
          <mxGeometry x="347" y="1143" width="190" height="30" as="geometry" />
        </mxCell>
        <mxCell id="O71D5WkDdYet5WOugUI6-81" value="&lt;span style=&quot;font-size: 17px; line-height: 107%;&quot;&gt;&amp;nbsp;1..*&lt;/span&gt;" style="text;strokeColor=none;fillColor=none;html=1;align=center;verticalAlign=middle;whiteSpace=wrap;rounded=1;fontSize=17;labelBackgroundColor=none;fontColor=#000000;" vertex="1" parent="WIyWlLk6GJQsqaUBKTNV-1">
          <mxGeometry x="347" y="1043" width="190" height="30" as="geometry" />
        </mxCell>
        <mxCell id="O71D5WkDdYet5WOugUI6-91" value="" style="endArrow=open;endFill=1;endSize=12;html=1;rounded=1;fontSize=17;curved=1;entryX=0.678;entryY=-0.011;entryDx=0;entryDy=0;labelBackgroundColor=none;strokeColor=#006658;fontColor=#000000;entryPerimeter=0;exitX=0.25;exitY=1;exitDx=0;exitDy=0;" edge="1" parent="WIyWlLk6GJQsqaUBKTNV-1" source="O71D5WkDdYet5WOugUI6-38" target="zkfFHV4jXpPFQw0GAbJ--17">
          <mxGeometry width="160" relative="1" as="geometry">
            <mxPoint x="667" y="1093" as="sourcePoint" />
            <mxPoint x="397" y="1233" as="targetPoint" />
          </mxGeometry>
        </mxCell>
        <mxCell id="O71D5WkDdYet5WOugUI6-93" value="" style="endArrow=open;endFill=1;endSize=12;html=1;rounded=1;fontSize=17;curved=1;labelBackgroundColor=none;strokeColor=#006658;fontColor=#000000;exitX=0.778;exitY=1.062;exitDx=0;exitDy=0;exitPerimeter=0;" edge="1" parent="WIyWlLk6GJQsqaUBKTNV-1" source="O71D5WkDdYet5WOugUI6-73">
          <mxGeometry width="160" relative="1" as="geometry">
            <mxPoint x="787" y="824" as="sourcePoint" />
            <mxPoint x="834" y="923" as="targetPoint" />
          </mxGeometry>
        </mxCell>
        <mxCell id="O71D5WkDdYet5WOugUI6-94" value="1..*" style="text;strokeColor=none;fillColor=none;html=1;align=center;verticalAlign=middle;whiteSpace=wrap;rounded=1;fontSize=17;labelBackgroundColor=none;fontColor=#000000;" vertex="1" parent="WIyWlLk6GJQsqaUBKTNV-1">
          <mxGeometry x="767" y="879" width="60" height="30" as="geometry" />
        </mxCell>
        <mxCell id="O71D5WkDdYet5WOugUI6-98" value="0..*" style="text;strokeColor=none;fillColor=none;html=1;align=center;verticalAlign=middle;whiteSpace=wrap;rounded=1;fontSize=17;labelBackgroundColor=none;fontColor=#000000;" vertex="1" parent="WIyWlLk6GJQsqaUBKTNV-1">
          <mxGeometry x="807" y="1273" width="60" height="30" as="geometry" />
        </mxCell>
        <mxCell id="O71D5WkDdYet5WOugUI6-99" value="" style="endArrow=open;endFill=1;endSize=12;html=1;rounded=1;fontSize=17;curved=1;exitX=1;exitY=0;exitDx=0;exitDy=0;entryX=-0.001;entryY=0.345;entryDx=0;entryDy=0;labelBackgroundColor=none;strokeColor=#006658;fontColor=#000000;entryPerimeter=0;" edge="1" parent="WIyWlLk6GJQsqaUBKTNV-1" source="O71D5WkDdYet5WOugUI6-20" target="O71D5WkDdYet5WOugUI6-73">
          <mxGeometry width="160" relative="1" as="geometry">
            <mxPoint x="197" y="763" as="sourcePoint" />
            <mxPoint x="357" y="763" as="targetPoint" />
          </mxGeometry>
        </mxCell>
        <mxCell id="O71D5WkDdYet5WOugUI6-116" value="Extends" style="endArrow=block;endSize=16;endFill=0;html=1;rounded=1;fontSize=17;curved=0;labelBackgroundColor=none;strokeColor=#006658;fontColor=#000000;exitX=0.75;exitY=0;exitDx=0;exitDy=0;" edge="1" parent="WIyWlLk6GJQsqaUBKTNV-1" source="O71D5WkDdYet5WOugUI6-38">
          <mxGeometry x="0.0003" width="160" relative="1" as="geometry">
            <mxPoint x="227" y="443" as="sourcePoint" />
            <mxPoint x="227" y="443" as="targetPoint" />
            <Array as="points">
              <mxPoint x="1067" y="443" />
            </Array>
            <mxPoint as="offset" />
          </mxGeometry>
        </mxCell>
        <mxCell id="O71D5WkDdYet5WOugUI6-118" value="0..*" style="text;strokeColor=none;fillColor=none;html=1;align=center;verticalAlign=middle;whiteSpace=wrap;rounded=1;fontSize=17;labelBackgroundColor=none;fontColor=#000000;" vertex="1" parent="WIyWlLk6GJQsqaUBKTNV-1">
          <mxGeometry x="307" y="1342" width="60" height="30" as="geometry" />
        </mxCell>
        <mxCell id="O71D5WkDdYet5WOugUI6-119" value="" style="endArrow=open;endFill=1;endSize=12;html=1;rounded=1;fontSize=17;curved=1;exitX=0.609;exitY=1.049;exitDx=0;exitDy=0;exitPerimeter=0;labelBackgroundColor=none;strokeColor=#006658;fontColor=#000000;entryX=0.376;entryY=-0.019;entryDx=0;entryDy=0;entryPerimeter=0;" edge="1" parent="WIyWlLk6GJQsqaUBKTNV-1" source="O71D5WkDdYet5WOugUI6-35" target="O71D5WkDdYet5WOugUI6-62">
          <mxGeometry width="160" relative="1" as="geometry">
            <mxPoint x="-88" y="1193" as="sourcePoint" />
            <mxPoint x="-93" y="1383" as="targetPoint" />
          </mxGeometry>
        </mxCell>
        <mxCell id="O71D5WkDdYet5WOugUI6-120" value="" style="endArrow=diamondThin;endFill=1;endSize=24;html=1;rounded=1;fontSize=17;curved=1;entryX=1;entryY=0.5;entryDx=0;entryDy=0;labelBackgroundColor=none;strokeColor=#006658;fontColor=#000000;" edge="1" parent="WIyWlLk6GJQsqaUBKTNV-1" source="zkfFHV4jXpPFQw0GAbJ--17" target="O71D5WkDdYet5WOugUI6-34">
          <mxGeometry width="160" relative="1" as="geometry">
            <mxPoint x="247" y="1243" as="sourcePoint" />
            <mxPoint x="407" y="1243" as="targetPoint" />
          </mxGeometry>
        </mxCell>
        <mxCell id="O71D5WkDdYet5WOugUI6-121" value="0..*" style="text;strokeColor=none;fillColor=none;html=1;align=center;verticalAlign=middle;whiteSpace=wrap;rounded=1;fontSize=17;labelBackgroundColor=none;fontColor=#000000;" vertex="1" parent="WIyWlLk6GJQsqaUBKTNV-1">
          <mxGeometry x="-153" y="1393" width="60" height="30" as="geometry" />
        </mxCell>
        <mxCell id="O71D5WkDdYet5WOugUI6-122" value="1..*" style="text;strokeColor=none;fillColor=none;html=1;align=center;verticalAlign=middle;whiteSpace=wrap;rounded=1;fontSize=17;labelBackgroundColor=none;fontColor=#000000;" vertex="1" parent="WIyWlLk6GJQsqaUBKTNV-1">
          <mxGeometry x="287" y="843" width="60" height="30" as="geometry" />
        </mxCell>
        <mxCell id="O71D5WkDdYet5WOugUI6-129" value="Package InsureFast" style="text;strokeColor=none;fillColor=none;html=1;align=center;verticalAlign=middle;whiteSpace=wrap;rounded=0;fontSize=16;" vertex="1" parent="WIyWlLk6GJQsqaUBKTNV-1">
          <mxGeometry x="-490" y="210" width="140" height="30" as="geometry" />
        </mxCell>
        <mxCell id="O71D5WkDdYet5WOugUI6-100" value="Extends" style="endArrow=block;endSize=16;endFill=0;html=1;rounded=1;fontSize=17;curved=1;exitX=0.5;exitY=0;exitDx=0;exitDy=0;labelBackgroundColor=none;strokeColor=#006658;fontColor=#000000;entryX=0.25;entryY=1;entryDx=0;entryDy=0;" edge="1" parent="WIyWlLk6GJQsqaUBKTNV-1" source="O71D5WkDdYet5WOugUI6-20" target="zkfFHV4jXpPFQw0GAbJ--0">
          <mxGeometry x="-0.1156" y="2" width="160" relative="1" as="geometry">
            <mxPoint x="-112.99999999999994" y="978.1959999999999" as="sourcePoint" />
            <mxPoint x="-28" y="909" as="targetPoint" />
            <mxPoint as="offset" />
          </mxGeometry>
        </mxCell>
        <mxCell id="ZBIgJgPECK3UeOJvwfk8-18" value="" style="endArrow=open;endFill=1;endSize=12;html=1;rounded=1;fontSize=17;curved=1;labelBackgroundColor=none;strokeColor=#006658;fontColor=#000000;exitX=0.398;exitY=0.009;exitDx=0;exitDy=0;entryX=0.926;entryY=0.97;entryDx=0;entryDy=0;exitPerimeter=0;entryPerimeter=0;" edge="1" parent="WIyWlLk6GJQsqaUBKTNV-1" source="O71D5WkDdYet5WOugUI6-38" target="O71D5WkDdYet5WOugUI6-73">
          <mxGeometry width="160" relative="1" as="geometry">
            <mxPoint x="909.04" y="926.26" as="sourcePoint" />
            <mxPoint x="908" y="803.0039999999999" as="targetPoint" />
          </mxGeometry>
        </mxCell>
        <mxCell id="ZBIgJgPECK3UeOJvwfk8-19" value="1..*" style="text;strokeColor=none;fillColor=none;html=1;align=center;verticalAlign=middle;whiteSpace=wrap;rounded=1;fontSize=17;labelBackgroundColor=none;fontColor=#000000;" vertex="1" parent="WIyWlLk6GJQsqaUBKTNV-1">
          <mxGeometry x="917" y="879" width="60" height="30" as="geometry" />
        </mxCell>
        <mxCell id="ZBIgJgPECK3UeOJvwfk8-20" value="" style="endArrow=open;endFill=1;endSize=12;html=1;rounded=1;fontSize=17;curved=1;entryX=0.051;entryY=1.07;entryDx=0;entryDy=0;labelBackgroundColor=none;strokeColor=#006658;fontColor=#000000;entryPerimeter=0;exitX=0.473;exitY=-0.008;exitDx=0;exitDy=0;exitPerimeter=0;" edge="1" parent="WIyWlLk6GJQsqaUBKTNV-1" source="zkfFHV4jXpPFQw0GAbJ--17" target="O71D5WkDdYet5WOugUI6-47">
          <mxGeometry width="160" relative="1" as="geometry">
            <mxPoint x="852" y="1216" as="sourcePoint" />
            <mxPoint x="760" y="1371" as="targetPoint" />
          </mxGeometry>
        </mxCell>
        <mxCell id="ZBIgJgPECK3UeOJvwfk8-21" value="1..*" style="text;strokeColor=none;fillColor=none;html=1;align=center;verticalAlign=middle;whiteSpace=wrap;rounded=1;fontSize=17;labelBackgroundColor=none;fontColor=#000000;" vertex="1" parent="WIyWlLk6GJQsqaUBKTNV-1">
          <mxGeometry x="647" y="1263" width="60" height="30" as="geometry" />
        </mxCell>
        <mxCell id="ZBIgJgPECK3UeOJvwfk8-22" value="" style="shape=folder;fontStyle=1;spacingTop=10;tabWidth=30;tabHeight=60;tabPosition=left;html=1;whiteSpace=wrap;fillColor=none;" vertex="1" parent="WIyWlLk6GJQsqaUBKTNV-1">
          <mxGeometry x="-500" y="200" width="1790" height="1500" as="geometry" />
        </mxCell>
      </root>
    </mxGraphModel>
  </diagram>
</mxfile>
